<?xml version="1.0" encoding="UTF-8" standalone="no"?>
<!DOCTYPE svg PUBLIC "-//W3C//DTD SVG 1.1//EN"
 "http://www.w3.org/Graphics/SVG/1.1/DTD/svg11.dtd">
<!-- Generated by graphviz version 2.40.1 (20161225.0304)
 -->
<!-- Title: dependencies Pages: 1 -->
<svg width="2527pt" height="290pt"
 viewBox="0.00 0.00 2527.00 290.00" xmlns="http://www.w3.org/2000/svg" xmlns:xlink="http://www.w3.org/1999/xlink">
<g id="graph0" class="graph" transform="scale(1 1) rotate(0) translate(4 286)">
<title>dependencies</title>
<polygon fill="#ffffff" stroke="transparent" points="-4,4 -4,-286 2523,-286 2523,4 -4,4"/>
<text text-anchor="start" x="1238.5091" y="-42.4" font-family="sans-serif" font-weight="bold" font-size="14.00" fill="#000000">Legend</text>
<polygon fill="#ffffb3" stroke="transparent" points="1025.5,-10 1025.5,-30 1045.5,-30 1045.5,-10 1025.5,-10"/>
<text text-anchor="start" x="1049.129" y="-15.4" font-family="sans-serif" font-size="14.00" fill="#000000"> &#160;Declarations</text>
<polygon fill="#8dd3c7" stroke="transparent" points="1138.5,-10 1138.5,-30 1158.5,-30 1158.5,-10 1138.5,-10"/>
<text text-anchor="start" x="1162.2251" y="-15.4" font-family="sans-serif" font-size="14.00" fill="#000000"> &#160;Module</text>
<polygon fill="#80b1d3" stroke="transparent" points="1224.5,-10 1224.5,-30 1244.5,-30 1244.5,-10 1224.5,-10"/>
<text text-anchor="start" x="1248.2812" y="-15.4" font-family="sans-serif" font-size="14.00" fill="#000000"> &#160;Bootstrap</text>
<polygon fill="#fdb462" stroke="transparent" points="1321.5,-10 1321.5,-30 1341.5,-30 1341.5,-10 1321.5,-10"/>
<text text-anchor="start" x="1345.1732" y="-15.4" font-family="sans-serif" font-size="14.00" fill="#000000"> &#160;Providers</text>
<polygon fill="#fb8072" stroke="transparent" points="1417.5,-10 1417.5,-30 1437.5,-30 1437.5,-10 1417.5,-10"/>
<text text-anchor="start" x="1441.2258" y="-15.4" font-family="sans-serif" font-size="14.00" fill="#000000"> &#160;Exports</text>
<g id="clust1" class="cluster">
<title>cluster_TableEditorExtrasModule</title>
<polygon fill="none" stroke="#000000" stroke-dasharray="1,5" points="8,-70 8,-198 186,-198 186,-70 8,-70"/>
</g>
<g id="clust3" class="cluster">
<title>cluster_TableEditorExtrasModule_imports</title>
<polygon fill="none" stroke="#000000" points="42,-78 42,-130 178,-130 178,-78 42,-78"/>
</g>
<g id="clust7" class="cluster">
<title>cluster_TableEditorModule</title>
<polygon fill="none" stroke="#000000" stroke-dasharray="1,5" points="718,-70 718,-274 2511,-274 2511,-70 718,-70"/>
</g>
<g id="clust8" class="cluster">
<title>cluster_TableEditorModule_declarations</title>
<polygon fill="none" stroke="#000000" points="1088,-78 1088,-130 2503,-130 2503,-78 1088,-78"/>
</g>
<g id="clust18" class="cluster">
<title>cluster_TableEditorModule_exports</title>
<polygon fill="none" stroke="#000000" points="873,-214 873,-266 2316,-266 2316,-214 873,-214"/>
</g>
<g id="clust20" class="cluster">
<title>cluster_TableEditorModule_providers</title>
<polygon fill="none" stroke="#000000" points="726,-78 726,-130 1080,-130 1080,-78 726,-78"/>
</g>
<g id="clust21" class="cluster">
<title>cluster_TypeaheadModule</title>
<polygon fill="none" stroke="#000000" stroke-dasharray="1,5" points="194,-138 194,-206 710,-206 710,-138 194,-138"/>
</g>
<g id="clust22" class="cluster">
<title>cluster_TypeaheadModule_declarations</title>
<polygon fill="none" stroke="#000000" points="458,-146 458,-198 702,-198 702,-146 458,-146"/>
</g>
<g id="clust25" class="cluster">
<title>cluster_TypeaheadModule_exports</title>
<polygon fill="none" stroke="#000000" points="202,-146 202,-198 450,-198 450,-146 202,-146"/>
</g>
<!-- TypeaheadModule -->
<g id="node1" class="node">
<title>TypeaheadModule</title>
<polygon fill="#8dd3c7" stroke="#000000" points="170.4608,-122 167.4608,-126 146.4608,-126 143.4608,-122 49.5392,-122 49.5392,-86 170.4608,-86 170.4608,-122"/>
<text text-anchor="middle" x="110" y="-99.8" font-family="Times,serif" font-size="14.00" fill="#000000">TypeaheadModule</text>
</g>
<!-- TableEditorExtrasModule -->
<g id="node2" class="node">
<title>TableEditorExtrasModule</title>
<polygon fill="#8dd3c7" stroke="#000000" points="178.1797,-190 175.1797,-194 154.1797,-194 151.1797,-190 15.8203,-190 15.8203,-154 178.1797,-154 178.1797,-190"/>
<text text-anchor="middle" x="97" y="-167.8" font-family="Times,serif" font-size="14.00" fill="#000000">TableEditorExtrasModule</text>
</g>
<!-- TypeaheadModule&#45;&gt;TableEditorExtrasModule -->
<g id="edge1" class="edge">
<title>TypeaheadModule&#45;&gt;TableEditorExtrasModule</title>
<path fill="none" stroke="#000000" d="M110,-122.2228C110,-122.2228 110,-143.7269 110,-143.7269"/>
<polygon fill="#000000" stroke="#000000" points="106.5001,-143.7269 110,-153.7269 113.5001,-143.727 106.5001,-143.7269"/>
</g>
<!-- TypeaheadCellControlValueAccessor  -->
<g id="node23" class="node">
<title>TypeaheadCellControlValueAccessor </title>
<polygon fill="#fb8072" stroke="#000000" points="441.7485,-190 210.2515,-190 210.2515,-154 441.7485,-154 441.7485,-190"/>
<text text-anchor="middle" x="326" y="-167.8" font-family="Times,serif" font-size="14.00" fill="#000000">TypeaheadCellControlValueAccessor </text>
</g>
<!-- TypeaheadModule&#45;&gt;TypeaheadCellControlValueAccessor  -->
<g id="edge21" class="edge">
<title>TypeaheadModule&#45;&gt;TypeaheadCellControlValueAccessor </title>
<path fill="none" stroke="#000000" stroke-dasharray="5,2" d="M170.7429,-110C234.6303,-110 326,-110 326,-110 326,-110 326,-143.7333 326,-143.7333"/>
<polygon fill="#000000" stroke="#000000" points="322.5001,-143.7333 326,-153.7333 329.5001,-143.7333 322.5001,-143.7333"/>
</g>
<!-- TableEditorDirective -->
<g id="node3" class="node">
<title>TableEditorDirective</title>
<polygon fill="#ffffb3" stroke="#000000" points="2495.4496,-122 2360.5504,-122 2360.5504,-86 2495.4496,-86 2495.4496,-122"/>
<text text-anchor="middle" x="2428" y="-99.8" font-family="Times,serif" font-size="14.00" fill="#000000">TableEditorDirective</text>
</g>
<!-- TableEditorModule -->
<g id="node11" class="node">
<title>TableEditorModule</title>
<polygon fill="#8dd3c7" stroke="#000000" points="1574.4173,-190 1571.4173,-194 1550.4173,-194 1547.4173,-190 1447.5827,-190 1447.5827,-154 1574.4173,-154 1574.4173,-190"/>
<text text-anchor="middle" x="1511" y="-167.8" font-family="Times,serif" font-size="14.00" fill="#000000">TableEditorModule</text>
</g>
<!-- TableEditorDirective&#45;&gt;TableEditorModule -->
<g id="edge2" class="edge">
<title>TableEditorDirective&#45;&gt;TableEditorModule</title>
<path fill="none" stroke="#000000" d="M2428,-122.2228C2428,-142.3652 2428,-172 2428,-172 2428,-172 1584.3909,-172 1584.3909,-172"/>
<polygon fill="#000000" stroke="#000000" points="1584.391,-168.5001 1574.3909,-172 1584.3909,-175.5001 1584.391,-168.5001"/>
</g>
<!-- TextCellControlValueAccessor -->
<g id="node4" class="node">
<title>TextCellControlValueAccessor</title>
<polygon fill="#ffffb3" stroke="#000000" points="2342.4958,-122 2149.5042,-122 2149.5042,-86 2342.4958,-86 2342.4958,-122"/>
<text text-anchor="middle" x="2246" y="-99.8" font-family="Times,serif" font-size="14.00" fill="#000000">TextCellControlValueAccessor</text>
</g>
<!-- TextCellControlValueAccessor&#45;&gt;TableEditorModule -->
<g id="edge3" class="edge">
<title>TextCellControlValueAccessor&#45;&gt;TableEditorModule</title>
<path fill="none" stroke="#000000" d="M2160.8864,-122.1686C2160.8864,-141.0898 2160.8864,-168 2160.8864,-168 2160.8864,-168 1584.4971,-168 1584.4971,-168"/>
<polygon fill="#000000" stroke="#000000" points="1584.4972,-164.5001 1574.4971,-168 1584.4971,-171.5001 1584.4972,-164.5001"/>
</g>
<!-- DateCellControlValueAccessor -->
<g id="node5" class="node">
<title>DateCellControlValueAccessor</title>
<polygon fill="#ffffb3" stroke="#000000" points="2131.764,-122 1938.236,-122 1938.236,-86 2131.764,-86 2131.764,-122"/>
<text text-anchor="middle" x="2035" y="-99.8" font-family="Times,serif" font-size="14.00" fill="#000000">DateCellControlValueAccessor</text>
</g>
<!-- DateCellControlValueAccessor&#45;&gt;TableEditorModule -->
<g id="edge4" class="edge">
<title>DateCellControlValueAccessor&#45;&gt;TableEditorModule</title>
<path fill="none" stroke="#000000" d="M1947.1922,-122.0225C1947.1922,-139.3734 1947.1922,-163 1947.1922,-163 1947.1922,-163 1584.4261,-163 1584.4261,-163"/>
<polygon fill="#000000" stroke="#000000" points="1584.4261,-159.5001 1574.4261,-163 1584.426,-166.5001 1584.4261,-159.5001"/>
</g>
<!-- NumberCellControlValueAccessor -->
<g id="node6" class="node">
<title>NumberCellControlValueAccessor</title>
<polygon fill="#ffffb3" stroke="#000000" points="1920.21,-122 1707.79,-122 1707.79,-86 1920.21,-86 1920.21,-122"/>
<text text-anchor="middle" x="1814" y="-99.8" font-family="Times,serif" font-size="14.00" fill="#000000">NumberCellControlValueAccessor</text>
</g>
<!-- NumberCellControlValueAccessor&#45;&gt;TableEditorModule -->
<g id="edge5" class="edge">
<title>NumberCellControlValueAccessor&#45;&gt;TableEditorModule</title>
<path fill="none" stroke="#000000" d="M1715.875,-122.0091C1715.875,-138.0494 1715.875,-159 1715.875,-159 1715.875,-159 1584.4207,-159 1584.4207,-159"/>
<polygon fill="#000000" stroke="#000000" points="1584.4207,-155.5001 1574.4207,-159 1584.4206,-162.5001 1584.4207,-155.5001"/>
</g>
<!-- TableEditorRowDirective -->
<g id="node7" class="node">
<title>TableEditorRowDirective</title>
<polygon fill="#ffffb3" stroke="#000000" points="1689.8933,-122 1528.1067,-122 1528.1067,-86 1689.8933,-86 1689.8933,-122"/>
<text text-anchor="middle" x="1609" y="-99.8" font-family="Times,serif" font-size="14.00" fill="#000000">TableEditorRowDirective</text>
</g>
<!-- TableEditorRowDirective&#45;&gt;TableEditorModule -->
<g id="edge6" class="edge">
<title>TableEditorRowDirective&#45;&gt;TableEditorModule</title>
<path fill="none" stroke="#000000" d="M1551.256,-122.2228C1551.256,-122.2228 1551.256,-143.7269 1551.256,-143.7269"/>
<polygon fill="#000000" stroke="#000000" points="1547.756,-143.7269 1551.256,-153.7269 1554.756,-143.727 1547.756,-143.7269"/>
</g>
<!-- InputTemplateComponent -->
<g id="node8" class="node">
<title>InputTemplateComponent</title>
<polygon fill="#ffffb3" stroke="#000000" points="1509.752,-122 1346.248,-122 1346.248,-86 1509.752,-86 1509.752,-122"/>
<text text-anchor="middle" x="1428" y="-99.8" font-family="Times,serif" font-size="14.00" fill="#000000">InputTemplateComponent</text>
</g>
<!-- InputTemplateComponent&#45;&gt;TableEditorModule -->
<g id="edge7" class="edge">
<title>InputTemplateComponent&#45;&gt;TableEditorModule</title>
<path fill="none" stroke="#000000" d="M1478.8338,-122.2228C1478.8338,-122.2228 1478.8338,-143.7269 1478.8338,-143.7269"/>
<polygon fill="#000000" stroke="#000000" points="1475.3339,-143.7269 1478.8338,-153.7269 1482.3339,-143.727 1475.3339,-143.7269"/>
</g>
<!-- OnInitDirective -->
<g id="node9" class="node">
<title>OnInitDirective</title>
<polygon fill="#ffffb3" stroke="#000000" points="1328.1318,-122 1223.8682,-122 1223.8682,-86 1328.1318,-86 1328.1318,-122"/>
<text text-anchor="middle" x="1276" y="-99.8" font-family="Times,serif" font-size="14.00" fill="#000000">OnInitDirective</text>
</g>
<!-- OnInitDirective&#45;&gt;TableEditorModule -->
<g id="edge8" class="edge">
<title>OnInitDirective&#45;&gt;TableEditorModule</title>
<path fill="none" stroke="#000000" d="M1315.5898,-122.0091C1315.5898,-138.0494 1315.5898,-159 1315.5898,-159 1315.5898,-159 1437.5559,-159 1437.5559,-159"/>
<polygon fill="#000000" stroke="#000000" points="1437.5559,-162.5001 1447.5559,-159 1437.5559,-155.5001 1437.5559,-162.5001"/>
</g>
<!-- AnchorDirective -->
<g id="node10" class="node">
<title>AnchorDirective</title>
<polygon fill="#ffffb3" stroke="#000000" points="1206.0646,-122 1095.9354,-122 1095.9354,-86 1206.0646,-86 1206.0646,-122"/>
<text text-anchor="middle" x="1151" y="-99.8" font-family="Times,serif" font-size="14.00" fill="#000000">AnchorDirective</text>
</g>
<!-- AnchorDirective&#45;&gt;TableEditorModule -->
<g id="edge9" class="edge">
<title>AnchorDirective&#45;&gt;TableEditorModule</title>
<path fill="none" stroke="#000000" d="M1172.7032,-122.0225C1172.7032,-139.3734 1172.7032,-163 1172.7032,-163 1172.7032,-163 1437.7658,-163 1437.7658,-163"/>
<polygon fill="#000000" stroke="#000000" points="1437.7658,-166.5001 1447.7658,-163 1437.7658,-159.5001 1437.7658,-166.5001"/>
</g>
<!-- TableEditorDirective  -->
<g id="node12" class="node">
<title>TableEditorDirective </title>
<polygon fill="#fb8072" stroke="#000000" points="2308.4503,-258 2169.5497,-258 2169.5497,-222 2308.4503,-222 2308.4503,-258"/>
<text text-anchor="middle" x="2239" y="-235.8" font-family="Times,serif" font-size="14.00" fill="#000000">TableEditorDirective </text>
</g>
<!-- TableEditorModule&#45;&gt;TableEditorDirective  -->
<g id="edge10" class="edge">
<title>TableEditorModule&#45;&gt;TableEditorDirective </title>
<path fill="none" stroke="#000000" stroke-dasharray="5,2" d="M1574.3317,-177C1751.4496,-177 2239,-177 2239,-177 2239,-177 2239,-211.7778 2239,-211.7778"/>
<polygon fill="#000000" stroke="#000000" points="2235.5001,-211.7778 2239,-221.7778 2242.5001,-211.7778 2235.5001,-211.7778"/>
</g>
<!-- TextCellControlValueAccessor  -->
<g id="node13" class="node">
<title>TextCellControlValueAccessor </title>
<polygon fill="#fb8072" stroke="#000000" points="2151.9952,-258 1956.0048,-258 1956.0048,-222 2151.9952,-222 2151.9952,-258"/>
<text text-anchor="middle" x="2054" y="-235.8" font-family="Times,serif" font-size="14.00" fill="#000000">TextCellControlValueAccessor </text>
</g>
<!-- TableEditorModule&#45;&gt;TextCellControlValueAccessor  -->
<g id="edge11" class="edge">
<title>TableEditorModule&#45;&gt;TextCellControlValueAccessor </title>
<path fill="none" stroke="#000000" stroke-dasharray="5,2" d="M1574.2135,-181C1715.3512,-181 2043.8172,-181 2043.8172,-181 2043.8172,-181 2043.8172,-211.9775 2043.8172,-211.9775"/>
<polygon fill="#000000" stroke="#000000" points="2040.3172,-211.9774 2043.8172,-221.9775 2047.3172,-211.9775 2040.3172,-211.9774"/>
</g>
<!-- DateCellControlValueAccessor  -->
<g id="node14" class="node">
<title>DateCellControlValueAccessor </title>
<polygon fill="#fb8072" stroke="#000000" points="1938.2639,-258 1741.7361,-258 1741.7361,-222 1938.2639,-222 1938.2639,-258"/>
<text text-anchor="middle" x="1840" y="-235.8" font-family="Times,serif" font-size="14.00" fill="#000000">DateCellControlValueAccessor </text>
</g>
<!-- TableEditorModule&#45;&gt;DateCellControlValueAccessor  -->
<g id="edge12" class="edge">
<title>TableEditorModule&#45;&gt;DateCellControlValueAccessor </title>
<path fill="none" stroke="#000000" stroke-dasharray="5,2" d="M1574.219,-186C1667.4729,-186 1830.9865,-186 1830.9865,-186 1830.9865,-186 1830.9865,-211.7181 1830.9865,-211.7181"/>
<polygon fill="#000000" stroke="#000000" points="1827.4866,-211.718 1830.9865,-221.7181 1834.4866,-211.7181 1827.4866,-211.718"/>
</g>
<!-- NumberCellControlValueAccessor  -->
<g id="node15" class="node">
<title>NumberCellControlValueAccessor </title>
<polygon fill="#fb8072" stroke="#000000" points="1724.2099,-258 1507.7901,-258 1507.7901,-222 1724.2099,-222 1724.2099,-258"/>
<text text-anchor="middle" x="1616" y="-235.8" font-family="Times,serif" font-size="14.00" fill="#000000">NumberCellControlValueAccessor </text>
</g>
<!-- TableEditorModule&#45;&gt;NumberCellControlValueAccessor  -->
<g id="edge13" class="edge">
<title>TableEditorModule&#45;&gt;NumberCellControlValueAccessor </title>
<path fill="none" stroke="#000000" stroke-dasharray="5,2" d="M1541.0517,-190.2228C1541.0517,-190.2228 1541.0517,-211.7269 1541.0517,-211.7269"/>
<polygon fill="#000000" stroke="#000000" points="1537.5518,-211.7269 1541.0517,-221.7269 1544.5518,-211.727 1537.5518,-211.7269"/>
</g>
<!-- TableEditorRowDirective  -->
<g id="node16" class="node">
<title>TableEditorRowDirective </title>
<polygon fill="#fb8072" stroke="#000000" points="1489.3928,-258 1324.6072,-258 1324.6072,-222 1489.3928,-222 1489.3928,-258"/>
<text text-anchor="middle" x="1407" y="-235.8" font-family="Times,serif" font-size="14.00" fill="#000000">TableEditorRowDirective </text>
</g>
<!-- TableEditorModule&#45;&gt;TableEditorRowDirective  -->
<g id="edge14" class="edge">
<title>TableEditorModule&#45;&gt;TableEditorRowDirective </title>
<path fill="none" stroke="#000000" stroke-dasharray="5,2" d="M1468.6191,-190.2228C1468.6191,-190.2228 1468.6191,-211.7269 1468.6191,-211.7269"/>
<polygon fill="#000000" stroke="#000000" points="1465.1191,-211.7269 1468.6191,-221.7269 1472.1191,-211.727 1465.1191,-211.7269"/>
</g>
<!-- InputTemplateComponent  -->
<g id="node17" class="node">
<title>InputTemplateComponent </title>
<polygon fill="#fb8072" stroke="#000000" points="1306.752,-258 1139.248,-258 1139.248,-222 1306.752,-222 1306.752,-258"/>
<text text-anchor="middle" x="1223" y="-235.8" font-family="Times,serif" font-size="14.00" fill="#000000">InputTemplateComponent </text>
</g>
<!-- TableEditorModule&#45;&gt;InputTemplateComponent  -->
<g id="edge15" class="edge">
<title>TableEditorModule&#45;&gt;InputTemplateComponent </title>
<path fill="none" stroke="#000000" stroke-dasharray="5,2" d="M1447.6888,-186C1374.8468,-186 1265.1552,-186 1265.1552,-186 1265.1552,-186 1265.1552,-211.7181 1265.1552,-211.7181"/>
<polygon fill="#000000" stroke="#000000" points="1261.6552,-211.718 1265.1552,-221.7181 1268.6552,-211.7181 1261.6552,-211.718"/>
</g>
<!-- OnInitDirective  -->
<g id="node18" class="node">
<title>OnInitDirective </title>
<polygon fill="#fb8072" stroke="#000000" points="1121.1313,-258 1012.8687,-258 1012.8687,-222 1121.1313,-222 1121.1313,-258"/>
<text text-anchor="middle" x="1067" y="-235.8" font-family="Times,serif" font-size="14.00" fill="#000000">OnInitDirective </text>
</g>
<!-- TableEditorModule&#45;&gt;OnInitDirective  -->
<g id="edge16" class="edge">
<title>TableEditorModule&#45;&gt;OnInitDirective </title>
<path fill="none" stroke="#000000" stroke-dasharray="5,2" d="M1447.6692,-181C1334.3243,-181 1108.5167,-181 1108.5167,-181 1108.5167,-181 1108.5167,-211.9775 1108.5167,-211.9775"/>
<polygon fill="#000000" stroke="#000000" points="1105.0167,-211.9774 1108.5167,-221.9775 1112.0167,-211.9775 1105.0167,-211.9774"/>
</g>
<!-- AnchorDirective  -->
<g id="node19" class="node">
<title>AnchorDirective </title>
<polygon fill="#fb8072" stroke="#000000" points="994.5654,-258 881.4346,-258 881.4346,-222 994.5654,-222 994.5654,-258"/>
<text text-anchor="middle" x="938" y="-235.8" font-family="Times,serif" font-size="14.00" fill="#000000">AnchorDirective </text>
</g>
<!-- TableEditorModule&#45;&gt;AnchorDirective  -->
<g id="edge17" class="edge">
<title>TableEditorModule&#45;&gt;AnchorDirective </title>
<path fill="none" stroke="#000000" stroke-dasharray="5,2" d="M1447.7375,-177C1302.4191,-177 957.1614,-177 957.1614,-177 957.1614,-177 957.1614,-211.7778 957.1614,-211.7778"/>
<polygon fill="#000000" stroke="#000000" points="953.6615,-211.7778 957.1614,-221.7778 960.6615,-211.7778 953.6615,-211.7778"/>
</g>
<!-- TemplateService -->
<g id="node20" class="node">
<title>TemplateService</title>
<ellipse fill="#fdb462" stroke="#000000" cx="996" cy="-104" rx="76.4188" ry="18"/>
<text text-anchor="middle" x="996" y="-99.8" font-family="Times,serif" font-size="14.00" fill="#000000">TemplateService</text>
</g>
<!-- TemplateService&#45;&gt;TableEditorModule -->
<g id="edge18" class="edge">
<title>TemplateService&#45;&gt;TableEditorModule</title>
<path fill="none" stroke="#000000" d="M1042.6969,-118.5226C1042.6969,-137.4053 1042.6969,-168 1042.6969,-168 1042.6969,-168 1437.3552,-168 1437.3552,-168"/>
<polygon fill="#000000" stroke="#000000" points="1437.3552,-171.5001 1447.3552,-168 1437.3552,-164.5001 1437.3552,-171.5001"/>
</g>
<!-- TableEditorConfig -->
<g id="node21" class="node">
<title>TableEditorConfig</title>
<ellipse fill="#fdb462" stroke="#000000" cx="818" cy="-104" rx="83.9682" ry="18"/>
<text text-anchor="middle" x="818" y="-99.8" font-family="Times,serif" font-size="14.00" fill="#000000">TableEditorConfig</text>
</g>
<!-- TableEditorConfig&#45;&gt;TableEditorModule -->
<g id="edge19" class="edge">
<title>TableEditorConfig&#45;&gt;TableEditorModule</title>
<path fill="none" stroke="#000000" d="M891.6009,-112.8898C891.6009,-131.322 891.6009,-172 891.6009,-172 891.6009,-172 1437.6243,-172 1437.6243,-172"/>
<polygon fill="#000000" stroke="#000000" points="1437.6243,-175.5001 1447.6243,-172 1437.6242,-168.5001 1437.6243,-175.5001"/>
</g>
<!-- TypeaheadCellControlValueAccessor -->
<g id="node22" class="node">
<title>TypeaheadCellControlValueAccessor</title>
<polygon fill="#ffffb3" stroke="#000000" points="694.2485,-190 465.7515,-190 465.7515,-154 694.2485,-154 694.2485,-190"/>
<text text-anchor="middle" x="580" y="-167.8" font-family="Times,serif" font-size="14.00" fill="#000000">TypeaheadCellControlValueAccessor</text>
</g>
<!-- TypeaheadCellControlValueAccessor&#45;&gt;TypeaheadModule -->
<g id="edge20" class="edge">
<title>TypeaheadCellControlValueAccessor&#45;&gt;TypeaheadModule</title>
<path fill="none" stroke="#000000" d="M580,-153.7079C580,-131.7943 580,-98 580,-98 580,-98 180.4821,-98 180.4821,-98"/>
<polygon fill="#000000" stroke="#000000" points="180.4821,-94.5001 170.4821,-98 180.4821,-101.5001 180.4821,-94.5001"/>
</g>
</g>
</svg>
