<?xml version="1.0" encoding="UTF-8" standalone="no"?>
<!DOCTYPE svg PUBLIC "-//W3C//DTD SVG 1.1//EN"
 "http://www.w3.org/Graphics/SVG/1.1/DTD/svg11.dtd">
<!-- Generated by graphviz version 2.40.1 (20161225.0304)
 -->
<!-- Title: dependencies Pages: 1 -->
<svg width="1817pt" height="284pt"
 viewBox="0.00 0.00 1817.00 284.00" xmlns="http://www.w3.org/2000/svg" xmlns:xlink="http://www.w3.org/1999/xlink">
<g id="graph0" class="graph" transform="scale(1 1) rotate(0) translate(4 280)">
<title>dependencies</title>
<polygon fill="#ffffff" stroke="transparent" points="-4,4 -4,-280 1813,-280 1813,4 -4,4"/>
<text text-anchor="start" x="883.5091" y="-42.4" font-family="sans-serif" font-weight="bold" font-size="14.00" fill="#000000">Legend</text>
<polygon fill="#ffffb3" stroke="transparent" points="670.5,-10 670.5,-30 690.5,-30 690.5,-10 670.5,-10"/>
<text text-anchor="start" x="694.129" y="-15.4" font-family="sans-serif" font-size="14.00" fill="#000000"> &#160;Declarations</text>
<polygon fill="#8dd3c7" stroke="transparent" points="783.5,-10 783.5,-30 803.5,-30 803.5,-10 783.5,-10"/>
<text text-anchor="start" x="807.2251" y="-15.4" font-family="sans-serif" font-size="14.00" fill="#000000"> &#160;Module</text>
<polygon fill="#80b1d3" stroke="transparent" points="869.5,-10 869.5,-30 889.5,-30 889.5,-10 869.5,-10"/>
<text text-anchor="start" x="893.2812" y="-15.4" font-family="sans-serif" font-size="14.00" fill="#000000"> &#160;Bootstrap</text>
<polygon fill="#fdb462" stroke="transparent" points="966.5,-10 966.5,-30 986.5,-30 986.5,-10 966.5,-10"/>
<text text-anchor="start" x="990.1732" y="-15.4" font-family="sans-serif" font-size="14.00" fill="#000000"> &#160;Providers</text>
<polygon fill="#fb8072" stroke="transparent" points="1062.5,-10 1062.5,-30 1082.5,-30 1082.5,-10 1062.5,-10"/>
<text text-anchor="start" x="1086.2258" y="-15.4" font-family="sans-serif" font-size="14.00" fill="#000000"> &#160;Exports</text>
<g id="clust1" class="cluster">
<title>cluster_TableEditorModule</title>
<polygon fill="none" stroke="#000000" stroke-dasharray="1,5" points="8,-70 8,-268 1801,-268 1801,-70 8,-70"/>
</g>
<g id="clust2" class="cluster">
<title>cluster_TableEditorModule_declarations</title>
<polygon fill="none" stroke="#000000" points="378,-78 378,-130 1793,-130 1793,-78 378,-78"/>
</g>
<g id="clust12" class="cluster">
<title>cluster_TableEditorModule_exports</title>
<polygon fill="none" stroke="#000000" points="163,-208 163,-260 1606,-260 1606,-208 163,-208"/>
</g>
<g id="clust14" class="cluster">
<title>cluster_TableEditorModule_providers</title>
<polygon fill="none" stroke="#000000" points="16,-78 16,-130 370,-130 370,-78 16,-78"/>
</g>
<!-- TableEditorDirective -->
<g id="node1" class="node">
<title>TableEditorDirective</title>
<polygon fill="#ffffb3" stroke="#000000" points="1785.4496,-122 1650.5504,-122 1650.5504,-86 1785.4496,-86 1785.4496,-122"/>
<text text-anchor="middle" x="1718" y="-99.8" font-family="Times,serif" font-size="14.00" fill="#000000">TableEditorDirective</text>
</g>
<!-- TableEditorModule -->
<g id="node9" class="node">
<title>TableEditorModule</title>
<polygon fill="#8dd3c7" stroke="#000000" points="864.4173,-187 861.4173,-191 840.4173,-191 837.4173,-187 737.5827,-187 737.5827,-151 864.4173,-151 864.4173,-187"/>
<text text-anchor="middle" x="801" y="-164.8" font-family="Times,serif" font-size="14.00" fill="#000000">TableEditorModule</text>
</g>
<!-- TableEditorDirective&#45;&gt;TableEditorModule -->
<g id="edge1" class="edge">
<title>TableEditorDirective&#45;&gt;TableEditorModule</title>
<path fill="none" stroke="#000000" d="M1718,-122.1061C1718,-141.3391 1718,-169 1718,-169 1718,-169 874.3909,-169 874.3909,-169"/>
<polygon fill="#000000" stroke="#000000" points="874.391,-165.5001 864.3909,-169 874.3909,-172.5001 874.391,-165.5001"/>
</g>
<!-- TextCellControlValueAccessor -->
<g id="node2" class="node">
<title>TextCellControlValueAccessor</title>
<polygon fill="#ffffb3" stroke="#000000" points="1632.4958,-122 1439.5042,-122 1439.5042,-86 1632.4958,-86 1632.4958,-122"/>
<text text-anchor="middle" x="1536" y="-99.8" font-family="Times,serif" font-size="14.00" fill="#000000">TextCellControlValueAccessor</text>
</g>
<!-- TextCellControlValueAccessor&#45;&gt;TableEditorModule -->
<g id="edge2" class="edge">
<title>TextCellControlValueAccessor&#45;&gt;TableEditorModule</title>
<path fill="none" stroke="#000000" d="M1450.8864,-122.302C1450.8864,-140.2699 1450.8864,-165 1450.8864,-165 1450.8864,-165 874.4971,-165 874.4971,-165"/>
<polygon fill="#000000" stroke="#000000" points="874.4972,-161.5001 864.4971,-165 874.4971,-168.5001 874.4972,-161.5001"/>
</g>
<!-- DateCellControlValueAccessor -->
<g id="node3" class="node">
<title>DateCellControlValueAccessor</title>
<polygon fill="#ffffb3" stroke="#000000" points="1421.764,-122 1228.236,-122 1228.236,-86 1421.764,-86 1421.764,-122"/>
<text text-anchor="middle" x="1325" y="-99.8" font-family="Times,serif" font-size="14.00" fill="#000000">DateCellControlValueAccessor</text>
</g>
<!-- DateCellControlValueAccessor&#45;&gt;TableEditorModule -->
<g id="edge3" class="edge">
<title>DateCellControlValueAccessor&#45;&gt;TableEditorModule</title>
<path fill="none" stroke="#000000" d="M1237.1921,-122.027C1237.1921,-138.3976 1237.1921,-160 1237.1921,-160 1237.1921,-160 874.4261,-160 874.4261,-160"/>
<polygon fill="#000000" stroke="#000000" points="874.4261,-156.5001 864.4261,-160 874.426,-163.5001 874.4261,-156.5001"/>
</g>
<!-- NumberCellControlValueAccessor -->
<g id="node4" class="node">
<title>NumberCellControlValueAccessor</title>
<polygon fill="#ffffb3" stroke="#000000" points="1210.21,-122 997.79,-122 997.79,-86 1210.21,-86 1210.21,-122"/>
<text text-anchor="middle" x="1104" y="-99.8" font-family="Times,serif" font-size="14.00" fill="#000000">NumberCellControlValueAccessor</text>
</g>
<!-- NumberCellControlValueAccessor&#45;&gt;TableEditorModule -->
<g id="edge4" class="edge">
<title>NumberCellControlValueAccessor&#45;&gt;TableEditorModule</title>
<path fill="none" stroke="#000000" d="M1005.875,-122.1871C1005.875,-137.1824 1005.875,-156 1005.875,-156 1005.875,-156 874.4207,-156 874.4207,-156"/>
<polygon fill="#000000" stroke="#000000" points="874.4207,-152.5001 864.4207,-156 874.4206,-159.5001 874.4207,-152.5001"/>
</g>
<!-- TableEditorRowDirective -->
<g id="node5" class="node">
<title>TableEditorRowDirective</title>
<polygon fill="#ffffb3" stroke="#000000" points="979.8933,-122 818.1067,-122 818.1067,-86 979.8933,-86 979.8933,-122"/>
<text text-anchor="middle" x="899" y="-99.8" font-family="Times,serif" font-size="14.00" fill="#000000">TableEditorRowDirective</text>
</g>
<!-- TableEditorRowDirective&#45;&gt;TableEditorModule -->
<g id="edge5" class="edge">
<title>TableEditorRowDirective&#45;&gt;TableEditorModule</title>
<path fill="none" stroke="#000000" d="M841.256,-122.1061C841.256,-122.1061 841.256,-140.991 841.256,-140.991"/>
<polygon fill="#000000" stroke="#000000" points="837.756,-140.9909 841.256,-150.991 844.756,-140.991 837.756,-140.9909"/>
</g>
<!-- InputTemplateComponent -->
<g id="node6" class="node">
<title>InputTemplateComponent</title>
<polygon fill="#ffffb3" stroke="#000000" points="799.752,-122 636.248,-122 636.248,-86 799.752,-86 799.752,-122"/>
<text text-anchor="middle" x="718" y="-99.8" font-family="Times,serif" font-size="14.00" fill="#000000">InputTemplateComponent</text>
</g>
<!-- InputTemplateComponent&#45;&gt;TableEditorModule -->
<g id="edge6" class="edge">
<title>InputTemplateComponent&#45;&gt;TableEditorModule</title>
<path fill="none" stroke="#000000" d="M768.8338,-122.1061C768.8338,-122.1061 768.8338,-140.991 768.8338,-140.991"/>
<polygon fill="#000000" stroke="#000000" points="765.3339,-140.9909 768.8338,-150.991 772.3339,-140.991 765.3339,-140.9909"/>
</g>
<!-- OnInitDirective -->
<g id="node7" class="node">
<title>OnInitDirective</title>
<polygon fill="#ffffb3" stroke="#000000" points="618.1318,-122 513.8682,-122 513.8682,-86 618.1318,-86 618.1318,-122"/>
<text text-anchor="middle" x="566" y="-99.8" font-family="Times,serif" font-size="14.00" fill="#000000">OnInitDirective</text>
</g>
<!-- OnInitDirective&#45;&gt;TableEditorModule -->
<g id="edge7" class="edge">
<title>OnInitDirective&#45;&gt;TableEditorModule</title>
<path fill="none" stroke="#000000" d="M605.5898,-122.1871C605.5898,-137.1824 605.5898,-156 605.5898,-156 605.5898,-156 727.5559,-156 727.5559,-156"/>
<polygon fill="#000000" stroke="#000000" points="727.5559,-159.5001 737.5559,-156 727.5559,-152.5001 727.5559,-159.5001"/>
</g>
<!-- AnchorDirective -->
<g id="node8" class="node">
<title>AnchorDirective</title>
<polygon fill="#ffffb3" stroke="#000000" points="496.0646,-122 385.9354,-122 385.9354,-86 496.0646,-86 496.0646,-122"/>
<text text-anchor="middle" x="441" y="-99.8" font-family="Times,serif" font-size="14.00" fill="#000000">AnchorDirective</text>
</g>
<!-- AnchorDirective&#45;&gt;TableEditorModule -->
<g id="edge8" class="edge">
<title>AnchorDirective&#45;&gt;TableEditorModule</title>
<path fill="none" stroke="#000000" d="M462.7032,-122.027C462.7032,-138.3976 462.7032,-160 462.7032,-160 462.7032,-160 727.7658,-160 727.7658,-160"/>
<polygon fill="#000000" stroke="#000000" points="727.7658,-163.5001 737.7658,-160 727.7658,-156.5001 727.7658,-163.5001"/>
</g>
<!-- TableEditorDirective  -->
<g id="node10" class="node">
<title>TableEditorDirective </title>
<polygon fill="#fb8072" stroke="#000000" points="1598.4503,-252 1459.5497,-252 1459.5497,-216 1598.4503,-216 1598.4503,-252"/>
<text text-anchor="middle" x="1529" y="-229.8" font-family="Times,serif" font-size="14.00" fill="#000000">TableEditorDirective </text>
</g>
<!-- TableEditorModule&#45;&gt;TableEditorDirective  -->
<g id="edge9" class="edge">
<title>TableEditorModule&#45;&gt;TableEditorDirective </title>
<path fill="none" stroke="#000000" stroke-dasharray="5,2" d="M864.3317,-174C1041.4496,-174 1529,-174 1529,-174 1529,-174 1529,-205.998 1529,-205.998"/>
<polygon fill="#000000" stroke="#000000" points="1525.5001,-205.998 1529,-215.998 1532.5001,-205.9981 1525.5001,-205.998"/>
</g>
<!-- TextCellControlValueAccessor  -->
<g id="node11" class="node">
<title>TextCellControlValueAccessor </title>
<polygon fill="#fb8072" stroke="#000000" points="1441.9952,-252 1246.0048,-252 1246.0048,-216 1441.9952,-216 1441.9952,-252"/>
<text text-anchor="middle" x="1344" y="-229.8" font-family="Times,serif" font-size="14.00" fill="#000000">TextCellControlValueAccessor </text>
</g>
<!-- TableEditorModule&#45;&gt;TextCellControlValueAccessor  -->
<g id="edge10" class="edge">
<title>TableEditorModule&#45;&gt;TextCellControlValueAccessor </title>
<path fill="none" stroke="#000000" stroke-dasharray="5,2" d="M864.2135,-178C1005.3512,-178 1333.8171,-178 1333.8171,-178 1333.8171,-178 1333.8171,-205.973 1333.8171,-205.973"/>
<polygon fill="#000000" stroke="#000000" points="1330.3172,-205.973 1333.8171,-215.973 1337.3172,-205.973 1330.3172,-205.973"/>
</g>
<!-- DateCellControlValueAccessor  -->
<g id="node12" class="node">
<title>DateCellControlValueAccessor </title>
<polygon fill="#fb8072" stroke="#000000" points="1228.2639,-252 1031.7361,-252 1031.7361,-216 1228.2639,-216 1228.2639,-252"/>
<text text-anchor="middle" x="1130" y="-229.8" font-family="Times,serif" font-size="14.00" fill="#000000">DateCellControlValueAccessor </text>
</g>
<!-- TableEditorModule&#45;&gt;DateCellControlValueAccessor  -->
<g id="edge11" class="edge">
<title>TableEditorModule&#45;&gt;DateCellControlValueAccessor </title>
<path fill="none" stroke="#000000" stroke-dasharray="5,2" d="M864.219,-183C957.4729,-183 1120.9865,-183 1120.9865,-183 1120.9865,-183 1120.9865,-205.8757 1120.9865,-205.8757"/>
<polygon fill="#000000" stroke="#000000" points="1117.4866,-205.8757 1120.9865,-215.8757 1124.4866,-205.8757 1117.4866,-205.8757"/>
</g>
<!-- NumberCellControlValueAccessor  -->
<g id="node13" class="node">
<title>NumberCellControlValueAccessor </title>
<polygon fill="#fb8072" stroke="#000000" points="1014.2099,-252 797.7901,-252 797.7901,-216 1014.2099,-216 1014.2099,-252"/>
<text text-anchor="middle" x="906" y="-229.8" font-family="Times,serif" font-size="14.00" fill="#000000">NumberCellControlValueAccessor </text>
</g>
<!-- TableEditorModule&#45;&gt;NumberCellControlValueAccessor  -->
<g id="edge12" class="edge">
<title>TableEditorModule&#45;&gt;NumberCellControlValueAccessor </title>
<path fill="none" stroke="#000000" stroke-dasharray="5,2" d="M831.0517,-187.1061C831.0517,-187.1061 831.0517,-205.991 831.0517,-205.991"/>
<polygon fill="#000000" stroke="#000000" points="827.5518,-205.9909 831.0517,-215.991 834.5518,-205.991 827.5518,-205.9909"/>
</g>
<!-- TableEditorRowDirective  -->
<g id="node14" class="node">
<title>TableEditorRowDirective </title>
<polygon fill="#fb8072" stroke="#000000" points="779.3928,-252 614.6072,-252 614.6072,-216 779.3928,-216 779.3928,-252"/>
<text text-anchor="middle" x="697" y="-229.8" font-family="Times,serif" font-size="14.00" fill="#000000">TableEditorRowDirective </text>
</g>
<!-- TableEditorModule&#45;&gt;TableEditorRowDirective  -->
<g id="edge13" class="edge">
<title>TableEditorModule&#45;&gt;TableEditorRowDirective </title>
<path fill="none" stroke="#000000" stroke-dasharray="5,2" d="M758.6191,-187.1061C758.6191,-187.1061 758.6191,-205.991 758.6191,-205.991"/>
<polygon fill="#000000" stroke="#000000" points="755.1191,-205.9909 758.6191,-215.991 762.1191,-205.991 755.1191,-205.9909"/>
</g>
<!-- InputTemplateComponent  -->
<g id="node15" class="node">
<title>InputTemplateComponent </title>
<polygon fill="#fb8072" stroke="#000000" points="596.752,-252 429.248,-252 429.248,-216 596.752,-216 596.752,-252"/>
<text text-anchor="middle" x="513" y="-229.8" font-family="Times,serif" font-size="14.00" fill="#000000">InputTemplateComponent </text>
</g>
<!-- TableEditorModule&#45;&gt;InputTemplateComponent  -->
<g id="edge14" class="edge">
<title>TableEditorModule&#45;&gt;InputTemplateComponent </title>
<path fill="none" stroke="#000000" stroke-dasharray="5,2" d="M737.6888,-183C664.8468,-183 555.1552,-183 555.1552,-183 555.1552,-183 555.1552,-205.8757 555.1552,-205.8757"/>
<polygon fill="#000000" stroke="#000000" points="551.6552,-205.8757 555.1552,-215.8757 558.6552,-205.8757 551.6552,-205.8757"/>
</g>
<!-- OnInitDirective  -->
<g id="node16" class="node">
<title>OnInitDirective </title>
<polygon fill="#fb8072" stroke="#000000" points="411.1313,-252 302.8687,-252 302.8687,-216 411.1313,-216 411.1313,-252"/>
<text text-anchor="middle" x="357" y="-229.8" font-family="Times,serif" font-size="14.00" fill="#000000">OnInitDirective </text>
</g>
<!-- TableEditorModule&#45;&gt;OnInitDirective  -->
<g id="edge15" class="edge">
<title>TableEditorModule&#45;&gt;OnInitDirective </title>
<path fill="none" stroke="#000000" stroke-dasharray="5,2" d="M737.6692,-178C624.3243,-178 398.5167,-178 398.5167,-178 398.5167,-178 398.5167,-205.973 398.5167,-205.973"/>
<polygon fill="#000000" stroke="#000000" points="395.0167,-205.973 398.5167,-215.973 402.0167,-205.973 395.0167,-205.973"/>
</g>
<!-- AnchorDirective  -->
<g id="node17" class="node">
<title>AnchorDirective </title>
<polygon fill="#fb8072" stroke="#000000" points="284.5654,-252 171.4346,-252 171.4346,-216 284.5654,-216 284.5654,-252"/>
<text text-anchor="middle" x="228" y="-229.8" font-family="Times,serif" font-size="14.00" fill="#000000">AnchorDirective </text>
</g>
<!-- TableEditorModule&#45;&gt;AnchorDirective  -->
<g id="edge16" class="edge">
<title>TableEditorModule&#45;&gt;AnchorDirective </title>
<path fill="none" stroke="#000000" stroke-dasharray="5,2" d="M737.7375,-174C592.4191,-174 247.1614,-174 247.1614,-174 247.1614,-174 247.1614,-205.998 247.1614,-205.998"/>
<polygon fill="#000000" stroke="#000000" points="243.6615,-205.998 247.1614,-215.998 250.6615,-205.9981 243.6615,-205.998"/>
</g>
<!-- TemplateService -->
<g id="node18" class="node">
<title>TemplateService</title>
<ellipse fill="#fdb462" stroke="#000000" cx="286" cy="-104" rx="76.4188" ry="18"/>
<text text-anchor="middle" x="286" y="-99.8" font-family="Times,serif" font-size="14.00" fill="#000000">TemplateService</text>
</g>
<!-- TemplateService&#45;&gt;TableEditorModule -->
<g id="edge17" class="edge">
<title>TemplateService&#45;&gt;TableEditorModule</title>
<path fill="none" stroke="#000000" d="M332.6969,-118.4561C332.6969,-136.4947 332.6969,-165 332.6969,-165 332.6969,-165 727.3552,-165 727.3552,-165"/>
<polygon fill="#000000" stroke="#000000" points="727.3552,-168.5001 737.3552,-165 727.3552,-161.5001 727.3552,-168.5001"/>
</g>
<!-- TableEditorConfig -->
<g id="node19" class="node">
<title>TableEditorConfig</title>
<ellipse fill="#fdb462" stroke="#000000" cx="108" cy="-104" rx="83.9682" ry="18"/>
<text text-anchor="middle" x="108" y="-99.8" font-family="Times,serif" font-size="14.00" fill="#000000">TableEditorConfig</text>
</g>
<!-- TableEditorConfig&#45;&gt;TableEditorModule -->
<g id="edge18" class="edge">
<title>TableEditorConfig&#45;&gt;TableEditorModule</title>
<path fill="none" stroke="#000000" d="M181.6009,-112.7662C181.6009,-130.5084 181.6009,-169 181.6009,-169 181.6009,-169 727.6243,-169 727.6243,-169"/>
<polygon fill="#000000" stroke="#000000" points="727.6243,-172.5001 737.6243,-169 727.6242,-165.5001 727.6243,-172.5001"/>
</g>
</g>
</svg>
