<?xml version="1.0" encoding="UTF-8" standalone="no"?>
<!DOCTYPE svg PUBLIC "-//W3C//DTD SVG 1.1//EN"
 "http://www.w3.org/Graphics/SVG/1.1/DTD/svg11.dtd">
<!-- Generated by graphviz version 2.40.1 (20161225.0304)
 -->
<!-- Title: dependencies Pages: 1 -->
<svg width="1818pt" height="284pt"
 viewBox="0.00 0.00 1818.00 284.00" xmlns="http://www.w3.org/2000/svg" xmlns:xlink="http://www.w3.org/1999/xlink">
<g id="graph0" class="graph" transform="scale(1 1) rotate(0) translate(4 280)">
<title>dependencies</title>
<polygon fill="#ffffff" stroke="transparent" points="-4,4 -4,-280 1814,-280 1814,4 -4,4"/>
<text text-anchor="start" x="884.0091" y="-42.4" font-family="sans-serif" font-weight="bold" font-size="14.00" fill="#000000">Legend</text>
<polygon fill="#ffffb3" stroke="transparent" points="671,-10 671,-30 691,-30 691,-10 671,-10"/>
<text text-anchor="start" x="694.629" y="-15.4" font-family="sans-serif" font-size="14.00" fill="#000000"> &#160;Declarations</text>
<polygon fill="#8dd3c7" stroke="transparent" points="784,-10 784,-30 804,-30 804,-10 784,-10"/>
<text text-anchor="start" x="807.7251" y="-15.4" font-family="sans-serif" font-size="14.00" fill="#000000"> &#160;Module</text>
<polygon fill="#80b1d3" stroke="transparent" points="870,-10 870,-30 890,-30 890,-10 870,-10"/>
<text text-anchor="start" x="893.7812" y="-15.4" font-family="sans-serif" font-size="14.00" fill="#000000"> &#160;Bootstrap</text>
<polygon fill="#fdb462" stroke="transparent" points="967,-10 967,-30 987,-30 987,-10 967,-10"/>
<text text-anchor="start" x="990.6732" y="-15.4" font-family="sans-serif" font-size="14.00" fill="#000000"> &#160;Providers</text>
<polygon fill="#fb8072" stroke="transparent" points="1063,-10 1063,-30 1083,-30 1083,-10 1063,-10"/>
<text text-anchor="start" x="1086.7258" y="-15.4" font-family="sans-serif" font-size="14.00" fill="#000000"> &#160;Exports</text>
<g id="clust1" class="cluster">
<title>cluster_TableEditorModule</title>
<polygon fill="none" stroke="#000000" stroke-dasharray="1,5" points="8,-70 8,-268 1802,-268 1802,-70 8,-70"/>
</g>
<g id="clust2" class="cluster">
<title>cluster_TableEditorModule_declarations</title>
<polygon fill="none" stroke="#000000" points="378,-78 378,-130 1794,-130 1794,-78 378,-78"/>
</g>
<g id="clust12" class="cluster">
<title>cluster_TableEditorModule_exports</title>
<polygon fill="none" stroke="#000000" points="199,-208 199,-260 1642,-260 1642,-208 199,-208"/>
</g>
<g id="clust14" class="cluster">
<title>cluster_TableEditorModule_providers</title>
<polygon fill="none" stroke="#000000" points="16,-78 16,-130 370,-130 370,-78 16,-78"/>
</g>
<!-- AnchorDirective -->
<g id="node1" class="node">
<title>AnchorDirective</title>
<polygon fill="#ffffb3" stroke="#000000" points="1786.0646,-122 1675.9354,-122 1675.9354,-86 1786.0646,-86 1786.0646,-122"/>
<text text-anchor="middle" x="1731" y="-99.8" font-family="Times,serif" font-size="14.00" fill="#000000">AnchorDirective</text>
</g>
<!-- TableEditorModule -->
<g id="node9" class="node">
<title>TableEditorModule</title>
<polygon fill="#8dd3c7" stroke="#000000" points="967.4173,-187 964.4173,-191 943.4173,-191 940.4173,-187 840.5827,-187 840.5827,-151 967.4173,-151 967.4173,-187"/>
<text text-anchor="middle" x="904" y="-164.8" font-family="Times,serif" font-size="14.00" fill="#000000">TableEditorModule</text>
</g>
<!-- AnchorDirective&#45;&gt;TableEditorModule -->
<g id="edge1" class="edge">
<title>AnchorDirective&#45;&gt;TableEditorModule</title>
<path fill="none" stroke="#000000" d="M1731,-122.1061C1731,-141.3391 1731,-169 1731,-169 1731,-169 977.5201,-169 977.5201,-169"/>
<polygon fill="#000000" stroke="#000000" points="977.5201,-165.5001 967.5201,-169 977.5201,-172.5001 977.5201,-165.5001"/>
</g>
<!-- DateCellControlValueAccessor -->
<g id="node2" class="node">
<title>DateCellControlValueAccessor</title>
<polygon fill="#ffffb3" stroke="#000000" points="1657.764,-122 1464.236,-122 1464.236,-86 1657.764,-86 1657.764,-122"/>
<text text-anchor="middle" x="1561" y="-99.8" font-family="Times,serif" font-size="14.00" fill="#000000">DateCellControlValueAccessor</text>
</g>
<!-- DateCellControlValueAccessor&#45;&gt;TableEditorModule -->
<g id="edge2" class="edge">
<title>DateCellControlValueAccessor&#45;&gt;TableEditorModule</title>
<path fill="none" stroke="#000000" d="M1483.375,-122.302C1483.375,-140.2699 1483.375,-165 1483.375,-165 1483.375,-165 977.3831,-165 977.3831,-165"/>
<polygon fill="#000000" stroke="#000000" points="977.3832,-161.5001 967.3831,-165 977.3831,-168.5001 977.3832,-161.5001"/>
</g>
<!-- InputTemplateComponent -->
<g id="node3" class="node">
<title>InputTemplateComponent</title>
<polygon fill="#ffffb3" stroke="#000000" points="1445.752,-122 1282.248,-122 1282.248,-86 1445.752,-86 1445.752,-122"/>
<text text-anchor="middle" x="1364" y="-99.8" font-family="Times,serif" font-size="14.00" fill="#000000">InputTemplateComponent</text>
</g>
<!-- InputTemplateComponent&#45;&gt;TableEditorModule -->
<g id="edge3" class="edge">
<title>InputTemplateComponent&#45;&gt;TableEditorModule</title>
<path fill="none" stroke="#000000" d="M1296.622,-122.027C1296.622,-138.3976 1296.622,-160 1296.622,-160 1296.622,-160 977.5179,-160 977.5179,-160"/>
<polygon fill="#000000" stroke="#000000" points="977.5179,-156.5001 967.5179,-160 977.5178,-163.5001 977.5179,-156.5001"/>
</g>
<!-- NumberCellControlValueAccessor -->
<g id="node4" class="node">
<title>NumberCellControlValueAccessor</title>
<polygon fill="#ffffb3" stroke="#000000" points="1264.21,-122 1051.79,-122 1051.79,-86 1264.21,-86 1264.21,-122"/>
<text text-anchor="middle" x="1158" y="-99.8" font-family="Times,serif" font-size="14.00" fill="#000000">NumberCellControlValueAccessor</text>
</g>
<!-- NumberCellControlValueAccessor&#45;&gt;TableEditorModule -->
<g id="edge4" class="edge">
<title>NumberCellControlValueAccessor&#45;&gt;TableEditorModule</title>
<path fill="none" stroke="#000000" d="M1076.875,-122.1871C1076.875,-137.1824 1076.875,-156 1076.875,-156 1076.875,-156 977.3906,-156 977.3906,-156"/>
<polygon fill="#000000" stroke="#000000" points="977.3907,-152.5001 967.3906,-156 977.3906,-159.5001 977.3907,-152.5001"/>
</g>
<!-- OnInitDirective -->
<g id="node5" class="node">
<title>OnInitDirective</title>
<polygon fill="#ffffb3" stroke="#000000" points="1033.1318,-122 928.8682,-122 928.8682,-86 1033.1318,-86 1033.1318,-122"/>
<text text-anchor="middle" x="981" y="-99.8" font-family="Times,serif" font-size="14.00" fill="#000000">OnInitDirective</text>
</g>
<!-- OnInitDirective&#45;&gt;TableEditorModule -->
<g id="edge5" class="edge">
<title>OnInitDirective&#45;&gt;TableEditorModule</title>
<path fill="none" stroke="#000000" d="M947.9464,-122.1061C947.9464,-122.1061 947.9464,-140.991 947.9464,-140.991"/>
<polygon fill="#000000" stroke="#000000" points="944.4464,-140.9909 947.9464,-150.991 951.4464,-140.991 944.4464,-140.9909"/>
</g>
<!-- TableEditorDirective -->
<g id="node6" class="node">
<title>TableEditorDirective</title>
<polygon fill="#ffffb3" stroke="#000000" points="910.4496,-122 775.5504,-122 775.5504,-86 910.4496,-86 910.4496,-122"/>
<text text-anchor="middle" x="843" y="-99.8" font-family="Times,serif" font-size="14.00" fill="#000000">TableEditorDirective</text>
</g>
<!-- TableEditorDirective&#45;&gt;TableEditorModule -->
<g id="edge6" class="edge">
<title>TableEditorDirective&#45;&gt;TableEditorModule</title>
<path fill="none" stroke="#000000" d="M875.6333,-122.1061C875.6333,-122.1061 875.6333,-140.991 875.6333,-140.991"/>
<polygon fill="#000000" stroke="#000000" points="872.1333,-140.9909 875.6333,-150.991 879.1333,-140.991 872.1333,-140.9909"/>
</g>
<!-- TableEditorRowDirective -->
<g id="node7" class="node">
<title>TableEditorRowDirective</title>
<polygon fill="#ffffb3" stroke="#000000" points="757.8933,-122 596.1067,-122 596.1067,-86 757.8933,-86 757.8933,-122"/>
<text text-anchor="middle" x="677" y="-99.8" font-family="Times,serif" font-size="14.00" fill="#000000">TableEditorRowDirective</text>
</g>
<!-- TableEditorRowDirective&#45;&gt;TableEditorModule -->
<g id="edge7" class="edge">
<title>TableEditorRowDirective&#45;&gt;TableEditorModule</title>
<path fill="none" stroke="#000000" d="M749.9606,-122.1871C749.9606,-137.1824 749.9606,-156 749.9606,-156 749.9606,-156 830.4569,-156 830.4569,-156"/>
<polygon fill="#000000" stroke="#000000" points="830.457,-159.5001 840.4569,-156 830.4569,-152.5001 830.457,-159.5001"/>
</g>
<!-- TextCellControlValueAccessor -->
<g id="node8" class="node">
<title>TextCellControlValueAccessor</title>
<polygon fill="#ffffb3" stroke="#000000" points="578.4958,-122 385.5042,-122 385.5042,-86 578.4958,-86 578.4958,-122"/>
<text text-anchor="middle" x="482" y="-99.8" font-family="Times,serif" font-size="14.00" fill="#000000">TextCellControlValueAccessor</text>
</g>
<!-- TextCellControlValueAccessor&#45;&gt;TableEditorModule -->
<g id="edge8" class="edge">
<title>TextCellControlValueAccessor&#45;&gt;TableEditorModule</title>
<path fill="none" stroke="#000000" d="M499.4006,-122.027C499.4006,-138.3976 499.4006,-160 499.4006,-160 499.4006,-160 830.7813,-160 830.7813,-160"/>
<polygon fill="#000000" stroke="#000000" points="830.7814,-163.5001 840.7813,-160 830.7813,-156.5001 830.7814,-163.5001"/>
</g>
<!-- AnchorDirective  -->
<g id="node10" class="node">
<title>AnchorDirective </title>
<polygon fill="#fb8072" stroke="#000000" points="1633.5654,-252 1520.4346,-252 1520.4346,-216 1633.5654,-216 1633.5654,-252"/>
<text text-anchor="middle" x="1577" y="-229.8" font-family="Times,serif" font-size="14.00" fill="#000000">AnchorDirective </text>
</g>
<!-- TableEditorModule&#45;&gt;AnchorDirective  -->
<g id="edge9" class="edge">
<title>TableEditorModule&#45;&gt;AnchorDirective </title>
<path fill="none" stroke="#000000" stroke-dasharray="5,2" d="M967.3142,-174C1134.8483,-174 1577,-174 1577,-174 1577,-174 1577,-205.998 1577,-205.998"/>
<polygon fill="#000000" stroke="#000000" points="1573.5001,-205.998 1577,-215.998 1580.5001,-205.9981 1573.5001,-205.998"/>
</g>
<!-- DateCellControlValueAccessor  -->
<g id="node11" class="node">
<title>DateCellControlValueAccessor </title>
<polygon fill="#fb8072" stroke="#000000" points="1502.2639,-252 1305.7361,-252 1305.7361,-216 1502.2639,-216 1502.2639,-252"/>
<text text-anchor="middle" x="1404" y="-229.8" font-family="Times,serif" font-size="14.00" fill="#000000">DateCellControlValueAccessor </text>
</g>
<!-- TableEditorModule&#45;&gt;DateCellControlValueAccessor  -->
<g id="edge10" class="edge">
<title>TableEditorModule&#45;&gt;DateCellControlValueAccessor </title>
<path fill="none" stroke="#000000" stroke-dasharray="5,2" d="M967.6219,-178C1096.3886,-178 1375.747,-178 1375.747,-178 1375.747,-178 1375.747,-205.973 1375.747,-205.973"/>
<polygon fill="#000000" stroke="#000000" points="1372.2471,-205.973 1375.747,-215.973 1379.2471,-205.973 1372.2471,-205.973"/>
</g>
<!-- InputTemplateComponent  -->
<g id="node12" class="node">
<title>InputTemplateComponent </title>
<polygon fill="#fb8072" stroke="#000000" points="1287.752,-252 1120.248,-252 1120.248,-216 1287.752,-216 1287.752,-252"/>
<text text-anchor="middle" x="1204" y="-229.8" font-family="Times,serif" font-size="14.00" fill="#000000">InputTemplateComponent </text>
</g>
<!-- TableEditorModule&#45;&gt;InputTemplateComponent  -->
<g id="edge11" class="edge">
<title>TableEditorModule&#45;&gt;InputTemplateComponent </title>
<path fill="none" stroke="#000000" stroke-dasharray="5,2" d="M967.2828,-183C1052.1676,-183 1192.3645,-183 1192.3645,-183 1192.3645,-183 1192.3645,-205.8757 1192.3645,-205.8757"/>
<polygon fill="#000000" stroke="#000000" points="1188.8646,-205.8757 1192.3645,-215.8757 1195.8646,-205.8757 1188.8646,-205.8757"/>
</g>
<!-- NumberCellControlValueAccessor  -->
<g id="node13" class="node">
<title>NumberCellControlValueAccessor </title>
<polygon fill="#fb8072" stroke="#000000" points="1102.2099,-252 885.7901,-252 885.7901,-216 1102.2099,-216 1102.2099,-252"/>
<text text-anchor="middle" x="994" y="-229.8" font-family="Times,serif" font-size="14.00" fill="#000000">NumberCellControlValueAccessor </text>
</g>
<!-- TableEditorModule&#45;&gt;NumberCellControlValueAccessor  -->
<g id="edge12" class="edge">
<title>TableEditorModule&#45;&gt;NumberCellControlValueAccessor </title>
<path fill="none" stroke="#000000" stroke-dasharray="5,2" d="M926.5517,-187.1061C926.5517,-187.1061 926.5517,-205.991 926.5517,-205.991"/>
<polygon fill="#000000" stroke="#000000" points="923.0518,-205.9909 926.5517,-215.991 930.0518,-205.991 923.0518,-205.9909"/>
</g>
<!-- OnInitDirective  -->
<g id="node14" class="node">
<title>OnInitDirective </title>
<polygon fill="#fb8072" stroke="#000000" points="868.1313,-252 759.8687,-252 759.8687,-216 868.1313,-216 868.1313,-252"/>
<text text-anchor="middle" x="814" y="-229.8" font-family="Times,serif" font-size="14.00" fill="#000000">OnInitDirective </text>
</g>
<!-- TableEditorModule&#45;&gt;OnInitDirective  -->
<g id="edge13" class="edge">
<title>TableEditorModule&#45;&gt;OnInitDirective </title>
<path fill="none" stroke="#000000" stroke-dasharray="5,2" d="M854.4287,-187.1061C854.4287,-187.1061 854.4287,-205.991 854.4287,-205.991"/>
<polygon fill="#000000" stroke="#000000" points="850.9287,-205.9909 854.4287,-215.991 857.9287,-205.991 850.9287,-205.9909"/>
</g>
<!-- TableEditorDirective  -->
<g id="node15" class="node">
<title>TableEditorDirective </title>
<polygon fill="#fb8072" stroke="#000000" points="742.4503,-252 603.5497,-252 603.5497,-216 742.4503,-216 742.4503,-252"/>
<text text-anchor="middle" x="673" y="-229.8" font-family="Times,serif" font-size="14.00" fill="#000000">TableEditorDirective </text>
</g>
<!-- TableEditorModule&#45;&gt;TableEditorDirective  -->
<g id="edge14" class="edge">
<title>TableEditorModule&#45;&gt;TableEditorDirective </title>
<path fill="none" stroke="#000000" stroke-dasharray="5,2" d="M840.5727,-183C772.1875,-183 673,-183 673,-183 673,-183 673,-205.8757 673,-205.8757"/>
<polygon fill="#000000" stroke="#000000" points="669.5001,-205.8757 673,-215.8757 676.5001,-205.8757 669.5001,-205.8757"/>
</g>
<!-- TableEditorRowDirective  -->
<g id="node16" class="node">
<title>TableEditorRowDirective </title>
<polygon fill="#fb8072" stroke="#000000" points="585.3928,-252 420.6072,-252 420.6072,-216 585.3928,-216 585.3928,-252"/>
<text text-anchor="middle" x="503" y="-229.8" font-family="Times,serif" font-size="14.00" fill="#000000">TableEditorRowDirective </text>
</g>
<!-- TableEditorModule&#45;&gt;TableEditorRowDirective  -->
<g id="edge15" class="edge">
<title>TableEditorModule&#45;&gt;TableEditorRowDirective </title>
<path fill="none" stroke="#000000" stroke-dasharray="5,2" d="M840.7373,-178C746.9178,-178 581.847,-178 581.847,-178 581.847,-178 581.847,-205.973 581.847,-205.973"/>
<polygon fill="#000000" stroke="#000000" points="578.3471,-205.973 581.847,-215.973 585.3471,-205.973 578.3471,-205.973"/>
</g>
<!-- TextCellControlValueAccessor  -->
<g id="node17" class="node">
<title>TextCellControlValueAccessor </title>
<polygon fill="#fb8072" stroke="#000000" points="402.9952,-252 207.0048,-252 207.0048,-216 402.9952,-216 402.9952,-252"/>
<text text-anchor="middle" x="305" y="-229.8" font-family="Times,serif" font-size="14.00" fill="#000000">TextCellControlValueAccessor </text>
</g>
<!-- TableEditorModule&#45;&gt;TextCellControlValueAccessor  -->
<g id="edge16" class="edge">
<title>TableEditorModule&#45;&gt;TextCellControlValueAccessor </title>
<path fill="none" stroke="#000000" stroke-dasharray="5,2" d="M840.7427,-174C704.2601,-174 394.375,-174 394.375,-174 394.375,-174 394.375,-205.998 394.375,-205.998"/>
<polygon fill="#000000" stroke="#000000" points="390.8751,-205.998 394.375,-215.998 397.8751,-205.9981 390.8751,-205.998"/>
</g>
<!-- TableEditorConfig -->
<g id="node18" class="node">
<title>TableEditorConfig</title>
<ellipse fill="#fdb462" stroke="#000000" cx="278" cy="-104" rx="83.9682" ry="18"/>
<text text-anchor="middle" x="278" y="-99.8" font-family="Times,serif" font-size="14.00" fill="#000000">TableEditorConfig</text>
</g>
<!-- TableEditorConfig&#45;&gt;TableEditorModule -->
<g id="edge17" class="edge">
<title>TableEditorConfig&#45;&gt;TableEditorModule</title>
<path fill="none" stroke="#000000" d="M284.4933,-121.9721C284.4933,-139.9656 284.4933,-165 284.4933,-165 284.4933,-165 830.6133,-165 830.6133,-165"/>
<polygon fill="#000000" stroke="#000000" points="830.6133,-168.5001 840.6133,-165 830.6132,-161.5001 830.6133,-168.5001"/>
</g>
<!-- TemplateService -->
<g id="node19" class="node">
<title>TemplateService</title>
<ellipse fill="#fdb462" stroke="#000000" cx="100" cy="-104" rx="76.4188" ry="18"/>
<text text-anchor="middle" x="100" y="-99.8" font-family="Times,serif" font-size="14.00" fill="#000000">TemplateService</text>
</g>
<!-- TemplateService&#45;&gt;TableEditorModule -->
<g id="edge18" class="edge">
<title>TemplateService&#45;&gt;TableEditorModule</title>
<path fill="none" stroke="#000000" d="M100,-122.1061C100,-141.3391 100,-169 100,-169 100,-169 830.5758,-169 830.5758,-169"/>
<polygon fill="#000000" stroke="#000000" points="830.5759,-172.5001 840.5758,-169 830.5758,-165.5001 830.5759,-172.5001"/>
</g>
</g>
</svg>
